#!OML:ASF E:\Mandelcareful walks\Project 1\Capture day 1\Session 1\Subject1.ASF
:FULLY-SPECIFIED
:DEGREES
2342
root -9.27928 15.3342 0.979751 14.8865 139.641 -4.19401
lowerback 37.6067 -3.94238 4.19601
upperback 7.34249 -0.80796 5.01704
thorax -10.4097 0.251135 3.39259
lowerneck -21.8054 -12.818 -12.8535
upperneck 11.4855 -16.8032 17.0425
head 9.85305 -6.86698 5.21448
rclavicle 3.02153e-014 -6.36111e-014
rhumerus -9.31352 -5.72653 -68.5701
rradius 65.5044
rwrist -20.7256
rhand -13.8312 -26.2704
rfingers 7.12502
rthumb 12.2919 -55.8891
lclavicle 3.02153e-014 -6.36111e-014
lhumerus -9.71083 -26.3759 81.3459
lradius 71.6088
lwrist 25.6683
lhand -28.2156 -12.7889
lfingers 7.12502
lthumb -1.59418 17.1849
rfemur -58.159 -6.93104 4.26048
rtibia 59.0579
rfoot -5.68491 21.1482
rtoes 0.175493
lfemur -46.3793 16.3194 -32.3355
ltibia 65.0169
lfoot -35.6542 13.7643
ltoes 1.74385
2343
root -9.33036 15.3315 0.926871 15.7077 137.641 -3.51401
lowerback 36.7374 -3.207 3.59367
upperback 7.47855 -0.26198 5.07156
thorax -9.97321 0.484885 3.52995
lowerneck -21.9283 -12.6694 -12.5902
upperneck 11.529 -16.5999 16.7305
head 9.79739 -6.78387 5.10343
rclavicle -5.24792e-014 -1.25632e-013
rhumerus -9.47002 -5.73329 -68.5731
rradius 65.4796
rwrist -20.8297
rhand -13.7746 -26.4509
rfingers 7.12502
rthumb 12.3465 -56.0664
lclavicle -5.24792e-014 -1.25632e-013
lhumerus -9.36306 -26.6482 80.9399
lradius 71.5487
lwrist 25.8491
lhand -27.4291 -15.6329
lfingers 7.12502
lthumb -0.834513 14.3452
rfemur -59.5425 -6.82522 5.45142
rtibia 59.2004
rfoot -5.68227 20.3722
rtoes -3.65946
lfemur -46.932 17.7104 -32.6317
ltibia 64.9978
lfoot -35.9612 14.3157
ltoes 1.6882
2344
root -9.38248 15.3289 0.86721 15.8254 136.06 -3.2075
lowerback 36.4971 -2.83433 3.14492
upperback 7.56122 -0.0268748 5.04327
thorax -9.80767 0.586491 3.63884
lowerneck -22.0697 -12.4614 -12.3609
upperneck 11.786 -16.3254 16.3813
head 9.80892 -6.66507 4.99988
rclavicle -6.20208e-014 2.62396e-014
rhumerus -9.46185 -5.58155 -68.5388
rradius 65.2711
rwrist -21.1039
rhand -13.4748 -26.6868
rfingers 7.12502
rthumb 12.6354 -56.2846
lclavicle -6.20208e-014 2.62396e-014
lhumerus -9.10598 -26.8905 80.5295
lradius 71.5593
lwrist 26.0514
lhand -27.9141 -15.068
lfingers 7.12502
lthumb -1.30297 14.9078
rfemur -60.2878 -7.15735 6.38755
rtibia 59.4045
rfoot -5.07306 19.2384
rtoes -5.09978
lfemur -46.8253 18.653 -33.0592
ltibia 64.9005
lfoot -36.2937 15.1595
ltoes 1.11863
2345
root -9.43711 15.3215 0.803677 15.7752 134.796 -3.04774
lowerback 36.4625 -2.69454 2.88057
upperback 7.53768 0.0146706 5.04174
thorax -9.82574 0.597012 3.76175
lowerneck -22.0323 -12.2516 -12.3747
upperneck 12.0088 -16.0188 16.1745
head 9.81147 -6.54018 4.99539
rclavicle -2.8625e-014 -6.59965e-014
rhumerus -9.59272 -5.39729 -68.5429
rradius 65.1234
rwrist -21.2856
rhand -13.2551 -26.5952
rfingers 7.12502
rthumb 12.8472 -56.1798
lclavicle -2.8625e-014 -6.59965e-014
lhumerus -9.14464 -26.7921 80.3999
lradius 71.6534
lwrist 26.0049
lhand -28.4332 -14.9126
lfingers 7.12502
lthumb -1.80428 15.0595
rfemur -60.841 -7.9952 7.54217
rtibia 59.6735
rfoot -4.80971 17.7103
rtoes -7.60365
lfemur -46.6835 19.2095 -33.429
ltibia 64.8864
lfoot -36.6194 15.5956
ltoes 1.47521
2346
root -9.48175 15.325 0.732341 15.2496 133.683 -2.80522
lowerback 37.1046 -2.67666 2.7721
upperback 7.57699 0.0622037 5.0851
thorax -10.0159 0.62661 3.85327
lowerneck -21.9672 -12.055 -12.4428
upperneck 12.0792 -15.6938 15.9597
head 9.75717 -6.41737 4.99924
rclavicle -1.66979e-014 -7.87187e-014
rhumerus -9.86338 -5.27244 -68.5159
rradius 65.1291
rwrist -21.34
rhand -13.4597 -26.3645
rfingers 7.12502
rthumb 12.6501 -55.9615
lclavicle -1.66979e-014 -7.87187e-014
lhumerus -9.16924 -26.4542 80.4332
lradius 71.6719
lwrist 25.8683
lhand -28.2953 -14.9827
lfingers 7.12502
lthumb -1.67115 14.9905
rfemur -60.5224 -8.9512 8.88212
rtibia 59.803
rfoot -4.9451 16.1574
rtoes -10.0338
lfemur -45.7885 19.755 -33.3787
ltibia 64.7742
lfoot -36.9498 15.7964
ltoes 2.07428
2347
root -9.51386 15.3323 0.656769 14.3674 132.484 -2.62145
lowerback 38.0901 -2.62848 2.68263
upperback 7.69335 0.179207 5.00199
thorax -10.2353 0.696927 3.77062
lowerneck -22.2083 -11.9006 -12.2733
upperneck 12.3168 -15.4806 15.7002
head 9.80739 -6.31657 4.91907
rclavicle 1.51076e-014 -9.06458e-014
rhumerus -10.1031 -5.33715 -68.5443
rradius 65.04
rwrist -21.3602
rhand -13.6006 -26.3903
rfingers 7.12502
rthumb 12.5142 -55.9956
lclavicle 1.51076e-014 -9.06458e-014
lhumerus -9.06027 -26.3753 80.2575
lradius 71.7425
lwrist 25.7397
lhand -28.2379 -14.5882
lfingers 7.12502
lthumb -1.61567 15.3854
rfemur -59.8348 -9.93268 10.2991
rtibia 59.7879
rfoot -5.15981 14.6742
rtoes -11.5308
lfemur -44.3505 20.4573 -33.2163
ltibia 64.531
lfoot -37.388 15.9654
ltoes 2.87441
